<?xml version="1.0" ?><!DOCTYPE svg  PUBLIC '-//W3C//DTD SVG 1.1//EN'  'http://www.w3.org/Graphics/SVG/1.1/DTD/svg11.dtd'><svg enable-background="new 0 0 512 512" id="Layer_1" version="1.1" viewBox="0 0 512 512" xml:space="preserve" xmlns="http://www.w3.org/2000/svg" xmlns:xlink="http://www.w3.org/1999/xlink"><g><path d="M273,406.1l50.8-50.8c-2.1-1-3.9-2-5.1-2.9c-13.8-9.8-9.8-50.5-9.8-50.5H203.1c0,0,3.9,40.6-9.8,50.5   c-1.2,0.9-3,1.8-5.1,2.9l50.8,50.8C248.4,415.5,263.6,415.5,273,406.1z" fill="#FDC77C"/><g><ellipse cx="151.2" cy="198" fill="#FDC77C" rx="20" ry="37.2" transform="matrix(0.9823 -0.1874 0.1874 0.9823 -34.4389 31.8487)"/><ellipse cx="356.7" cy="198" fill="#FDC77C" rx="20" ry="37.2" transform="matrix(-0.9823 -0.1874 0.1874 -0.9823 669.9241 459.3991)"/></g><path d="M359.5,124.4c0-46.6-47.3-84.4-105.5-84.4s-105.5,37.8-105.5,84.4c0,10.3,2.3,20.1,6.5,29.3   c-2.6,11.9-4,24.5-4,37.6c0,75.1,46.1,136.1,103,136.1s103-60.9,103-136.1c0-13-1.4-25.7-4-37.6   C357.2,144.6,359.5,134.7,359.5,124.4z" fill="#FBD984"/><path d="M326.4,76.5c0,0-20,12.8-65.7,17.6c-45.7,4.8-61.7,24-57.7,37.7c0,0-13.2-22.4-0.6-32.9   c0,0-30.7,4.8-37.1,37.7s-13.6,72.1-13.6,72.1s-3.2-37.7-13.6-42.5c0,0-20-86.6,24-119.4s117-47.3,164.3-8c0,0-13.6-21.6-32.1-31.3   c0,0,32.9,11.2,38.5,28.9L327.2,2c0,0,14.4,22.4,11.2,39.3c0,0,10.4-15.2,28.1-14.4l-19.2,19.2c0,0,54.5,11.2,26.4,130.6   c0,0-17.6,16-16.8,32.1c0,0,0.8-41.7-9.6-68.1C336.8,114.2,327.2,88.6,326.4,76.5z" fill="#445C6C"/><path d="M461,510c-5.4-39.1-13.6-84.3-24.1-99.2c-13.2-19-60.4-34.4-88.7-45.4l-70.2,70.2   c-12.2,12.2-32,12.2-44.1,0l-70.2-70.2c-28.3,11-75.5,26.4-88.7,45.4C64.6,425.7,56.4,470.9,51,510H461z" fill="#41B3E2"/><path d="M278.1,435.6l70.2-70.2c-10-3.9-18.7-7.3-24.5-10.1L273,406.1c-9.4,9.4-24.6,9.4-34,0l-50.8-50.8   c-5.7,2.8-14.4,6.2-24.5,10.1l70.2,70.2C246.1,447.8,265.9,447.8,278.1,435.6z" fill="#379FC8"/></g></svg>